<svg aria-hidden="true" style="position: absolute; width: 0; height: 0; overflow: hidden;" version="1.1" xmlns="http://www.w3.org/2000/svg" xmlns:xlink="http://www.w3.org/1999/xlink">
<defs>
<symbol id="icon-aC" viewBox="0 0 32 32">
<path d="M25 4c-2.761 0-5 2.239-5 5v0c0 0.552-0.448 1-1 1s-1-0.448-1-1v0c0-3.866 3.134-7 7-7s7 3.134 7 7c0 3.866-3.134 7-7 7v0h-24c-0.552 0-1-0.448-1-1s0.448-1 1-1v0h24c2.761 0 5-2.239 5-5s-2.239-5-5-5v0zM11 6c-1.105 0-2 0.895-2 2v0c0 0.552-0.448 1-1 1s-1-0.448-1-1v0c0-2.209 1.791-4 4-4s4 1.791 4 4c0 2.209-1.791 4-4 4v0h-10c-0.552 0-1-0.448-1-1s0.448-1 1-1v0h10c1.105 0 2-0.895 2-2s-0.895-2-2-2v0zM0 19c0-0.552 0.448-1 1-1v0h20.085c3.314 0 6 2.686 6 6s-2.686 6-6 6c-3.314 0-6-2.686-6-6v0c0-0.552 0.448-1 1-1s1 0.448 1 1v0c0 2.209 1.791 4 4 4s4-1.791 4-4c0-2.209-1.791-4-4-4v0h-20.086c-0.552-0.001-0.998-0.448-0.998-1 0 0 0 0 0 0v0z"></path>
</symbol>
<symbol id="icon-transmission" viewBox="0 0 32 32">
<path d="M12 7c0-1.657 1.343-3 3-3v0h2c1.657 0 3 1.343 3 3v0 2c0 1.657-1.343 3-3 3v0 2h11c0.552 0 1 0.448 1 1v0 2c0 0.552-0.448 1-1 1s-1-0.448-1-1v0-1h-10v1c0 0.552-0.448 1-1 1s-1-0.448-1-1v0-1h-10v1c0 0.552-0.448 1-1 1s-1-0.448-1-1v0-2c0-0.552 0.448-1 1-1v0h11v-2c-1.657 0-3-1.343-3-3v0-2zM17 10c0.552 0 1-0.448 1-1v0-2c0-0.552-0.448-1-1-1v0h-2c-0.552 0-1 0.448-1 1v0 2c0 0.552 0.448 1 1 1v0h2zM0 23c0-1.657 1.343-3 3-3v0h2c1.657 0 3 1.343 3 3v0 2c0 1.657-1.343 3-3 3v0h-2c-1.657 0-3-1.343-3-3v0-2zM3 22c-0.552 0-1 0.448-1 1v0 2c0 0.552 0.448 1 1 1v0h2c0.552 0 1-0.448 1-1v0-2c0-0.552-0.448-1-1-1v0h-2zM12 23c0-1.657 1.343-3 3-3v0h2c1.657 0 3 1.343 3 3v0 2c0 1.657-1.343 3-3 3v0h-2c-1.657 0-3-1.343-3-3v0-2zM15 22c-0.552 0-1 0.448-1 1v0 2c0 0.552 0.448 1 1 1v0h2c0 0 0.001 0 0.002 0 0.551 0 0.998-0.447 0.998-0.998 0-0.001 0-0.001 0-0.002v0-2c0-0 0-0.001 0-0.002 0-0.551-0.447-0.998-0.998-0.998-0.001 0-0.001 0-0.002 0h-2zM24 23c0-1.657 1.343-3 3-3v0h2c1.657 0 3 1.343 3 3v0 2c0 1.657-1.343 3-3 3v0h-2c-1.657 0-3-1.343-3-3v0-2zM27 22c-0 0-0.001 0-0.002 0-0.551 0-0.998 0.447-0.998 0.998 0 0.001 0 0.001 0 0.002v-0 2c0 0 0 0.001 0 0.002 0 0.551 0.447 0.998 0.998 0.998 0.001 0 0.001 0 0.002 0h2c0 0 0.001 0 0.002 0 0.551 0 0.998-0.447 0.998-0.998 0-0.001 0-0.001 0-0.002v0-2c0-0 0-0.001 0-0.002 0-0.551-0.447-0.998-0.998-0.998-0.001 0-0.001 0-0.002 0h-2z"></path>
</symbol>
<symbol id="icon-bathroom" viewBox="0 0 32 32">
<path d="M8 29.501c0 0.828-0.671 1.499-1.499 1.499s-1.499-0.671-1.499-1.499v0c0-0.828 0.671-1.499 1.499-1.499s1.499 0.671 1.499 1.499v0zM10.501 24c-0.015-0-0.032-0.001-0.049-0.001-0.829 0-1.501 0.672-1.501 1.501s0.672 1.501 1.501 1.501c0.017 0 0.034-0 0.051-0.001l-0.002 0c0.808-0.027 1.452-0.688 1.452-1.5s-0.644-1.473-1.449-1.5l-0.002-0zM2.501 24c-0.015-0-0.032-0.001-0.049-0.001-0.829 0-1.501 0.672-1.501 1.501s0.672 1.501 1.501 1.501c0.017 0 0.034-0 0.051-0.001l-0.002 0c0.808-0.027 1.452-0.688 1.452-1.5s-0.644-1.473-1.449-1.5l-0.002-0zM6.501 20c-0.015-0-0.032-0.001-0.049-0.001-0.829 0-1.501 0.672-1.501 1.501s0.672 1.501 1.501 1.501c0.017 0 0.034-0 0.051-0.001l-0.002 0c0.808-0.027 1.452-0.688 1.452-1.5s-0.644-1.473-1.449-1.5l-0.002-0zM32 5c0 0.552-0.448 1-1 1v0h-3.586l-3.482 3.483-2.707 15.848c-0.164 0.953-0.985 1.669-1.973 1.669-0.553 0-1.053-0.224-1.415-0.586l-12.25-12.251c-0.362-0.362-0.586-0.862-0.586-1.414 0-0.989 0.718-1.81 1.66-1.971l0.012-0.002 15.842-2.709 3.776-3.776c0.181-0.18 0.43-0.291 0.705-0.291 0.001 0 0.001 0 0.002 0h4c0.552 0 1 0.448 1 1v0zM21.776 10.224l-14.776 2.526 12.25 12.25 2.528-14.776z"></path>
</symbol>
<symbol id="icon-fullyIntegrated" viewBox="0 0 32 32">
<path d="M2 5c0-1.657 1.343-3 3-3v0h6c1.657 0 3 1.343 3 3v0 6c0 1.657-1.343 3-3 3v0h-6c-1.657 0-3-1.343-3-3v0-6zM5 4c-0.552 0-1 0.448-1 1v0 6c0 0.552 0.448 1 1 1v0h6c0.552 0 1-0.448 1-1v0-6c0-0.552-0.448-1-1-1v0h-6zM18 5c0-1.657 1.343-3 3-3v0h6c1.657 0 3 1.343 3 3v0 6c0 1.657-1.343 3-3 3v0h-6c-1.657 0-3-1.343-3-3v0-6zM21 4c-0.552 0-1 0.448-1 1v0 6c0 0.552 0.448 1 1 1v0h6c0.552 0 1-0.448 1-1v0-6c0-0.552-0.448-1-1-1v0h-6zM2 21c0-1.657 1.343-3 3-3v0h6c1.657 0 3 1.343 3 3v0 6c0 1.657-1.343 3-3 3v0h-6c-1.657 0-3-1.343-3-3v0-6zM5 20c-0.552 0-1 0.448-1 1v0 6c0 0.552 0.448 1 1 1v0h6c0.552 0 1-0.448 1-1v0-6c0-0.552-0.448-1-1-1v0h-6zM18 21c0-1.657 1.343-3 3-3v0h6c1.657 0 3 1.343 3 3v0 6c0 1.657-1.343 3-3 3v0h-6c-1.657 0-3-1.343-3-3v0-6zM21 20c-0.552 0-1 0.448-1 1v0 6c0 0.552 0.448 1 1 1v0h6c0.552 0 1-0.448 1-1v0-6c0-0.552-0.448-1-1-1v0h-6z"></path>
</symbol>
<symbol id="icon-van" viewBox="0 0 32 32">
<path d="M12 2h-10v28h10v-28zM30 2h-10v10h10v-10zM30 20v10h-10v-10h10zM0 2c0-1.105 0.895-2 2-2v0h10c1.105 0 2 0.895 2 2v0 28c0 1.105-0.895 2-2 2v0h-10c-1.105 0-2-0.895-2-2v0-28zM18 2c0-1.105 0.895-2 2-2v0h10c1.105 0 2 0.895 2 2v0 10c0 1.105-0.895 2-2 2v0h-10c-1.105 0-2-0.895-2-2v0-10zM20 18c-1.105 0-2 0.895-2 2v0 10c0 1.105 0.895 2 2 2v0h10c1.105 0 2-0.895 2-2v0-10c0-1.105-0.895-2-2-2v0h-10z"></path>
</symbol>
<symbol id="icon-alcove" viewBox="0 0 32 32">
<path d="M8 4v4h-4v-4h4zM10 28v-4c0-1.105-0.895-2-2-2v0h-4c-1.105 0-2 0.895-2 2v0 4c0 1.105 0.895 2 2 2v0h4c1.105 0 2-0.895 2-2v0zM10 18v-4c0-1.105-0.895-2-2-2v0h-4c-1.105 0-2 0.895-2 2v0 4c0 1.105 0.895 2 2 2v0h4c1.105 0 2-0.895 2-2v0zM10 8v-4c0-1.105-0.895-2-2-2v0h-4c-1.105 0-2 0.895-2 2v0 4c0 1.105 0.895 2 2 2v0h4c1.105 0 2-0.895 2-2v0zM20 28v-4c0-1.105-0.895-2-2-2v0h-4c-1.105 0-2 0.895-2 2v0 4c0 1.105 0.895 2 2 2v0h4c1.105 0 2-0.895 2-2v0zM20 18v-4c0-1.105-0.895-2-2-2v0h-4c-1.105 0-2 0.895-2 2v0 4c0 1.105 0.895 2 2 2v0h4c1.105 0 2-0.895 2-2v0zM20 8v-4c0-1.105-0.895-2-2-2v0h-4c-1.105 0-2 0.895-2 2v0 4c0 1.105 0.895 2 2 2v0h4c1.105 0 2-0.895 2-2v0zM18 4v4h-4v-4h4zM28 4v4h-4v-4h4zM8 14v4h-4v-4h4zM18 14v4h-4v-4h4zM28 14h-4v4h4v-4zM8 24v4h-4v-4h4zM18 24v4h-4v-4h4zM28 24v4h-4v-4h4zM24 2c-1.105 0-2 0.895-2 2v0 4c0 1.105 0.895 2 2 2v0h4c1.105 0 2-0.895 2-2v0-4c0-1.105-0.895-2-2-2v0h-4zM22 14c0-1.105 0.895-2 2-2v0h4c1.105 0 2 0.895 2 2v0 4c0 1.105-0.895 2-2 2v0h-4c-1.105 0-2-0.895-2-2v0-4zM24 22c-1.105 0-2 0.895-2 2v0 4c0 1.105 0.895 2 2 2v0h4c1.105 0 2-0.895 2-2v0-4c0-1.105-0.895-2-2-2v0h-4z"></path>
</symbol>
<symbol id="icon-gas" viewBox="0 0 32 32">
<path d="M8 1.466c-2.29 0-3.988 0.185-5.169 1.366s-1.366 2.879-1.366 5.169v16c0 2.29 0.185 3.988 1.366 5.169s2.879 1.366 5.169 1.366h16c2.29 0 3.988-0.185 5.169-1.366s1.366-2.879 1.366-5.169v-16c0-2.29-0.185-3.988-1.366-5.169s-2.879-1.366-5.169-1.366zM8 3.866h16c2.123 0 3.089 0.28 3.472 0.663s0.663 1.349 0.663 3.472v16c0 2.123-0.28 3.089-0.663 3.472s-1.349 0.663-3.472 0.663h-16c-2.123 0-3.089-0.28-3.472-0.663s-0.663-1.349-0.663-3.472v-16c0-2.123 0.28-3.089 0.663-3.472s1.349-0.663 3.472-0.663zM8 24.134c-0.663 0-1.2 0.537-1.2 1.2v0c0 0.663 0.537 1.2 1.2 1.2v0h5.334c0.663 0 1.2-0.537 1.2-1.2v0c0-0.663-0.537-1.2-1.2-1.2v0zM24 24.134c-0.663 0-1.2 0.537-1.2 1.2v0 0.012c0 0.663 0.537 1.2 1.2 1.2v0c0.663 0 1.2-0.537 1.2-1.2v0-0.012c0-0.663-0.537-1.2-1.2-1.2v0z"></path>
<path d="M16 6.8c-3.594 0-6.534 2.94-6.534 6.534s2.94 6.531 6.534 6.531c3.594 0 6.534-2.937 6.534-6.531s-2.94-6.534-6.534-6.534zM16 9.2c2.297 0 4.134 1.837 4.134 4.134s-1.837 4.131-4.134 4.131c-2.297 0-4.134-1.834-4.134-4.131s1.837-4.134 4.134-4.134z"></path>
<path d="M16 5.466c-0.663 0-1.2 0.537-1.2 1.2v0 2c0 0.663 0.537 1.2 1.2 1.2v0c0.663 0 1.2-0.537 1.2-1.2v0-2c0-0.663-0.537-1.2-1.2-1.2v0zM9.334 12.134c-0.663 0-1.2 0.537-1.2 1.2v0c0 0.663 0.537 1.2 1.2 1.2v0h2c0.663 0 1.2-0.537 1.2-1.2v0c0-0.663-0.537-1.2-1.2-1.2v0zM20.666 12.134c-0.663 0-1.2 0.537-1.2 1.2v0c0 0.663 0.537 1.2 1.2 1.2v0h2c0.663 0 1.2-0.537 1.2-1.2v0c0-0.663-0.537-1.2-1.2-1.2v0zM16 16.8c-0.663 0-1.2 0.537-1.2 1.2v0 2c0 0.663 0.537 1.2 1.2 1.2v0c0.663 0 1.2-0.537 1.2-1.2v0-2c0-0.663-0.537-1.2-1.2-1.2v0z"></path>
</symbol>
<symbol id="icon-heart" viewBox="0 0 32 32">
<path d="M16 13.139l-1.788-3.577c-0.444-0.887-1.213-2.16-2.304-3.191-1.072-1.013-2.356-1.704-3.908-1.704-3.352 0-6 2.652-6 5.84 0 2.423 1.108 4.132 3.736 6.74 0.719 0.705 1.465 1.418 2.221 2.122l0.071 0.065c2.216 2.080 4.972 4.667 7.972 8.128 3-3.46 5.756-6.049 7.972-8.128 0.827-0.768 1.573-1.482 2.31-2.204l-0.018 0.018c2.628-2.608 3.736-4.319 3.736-6.74 0-3.188-2.648-5.84-6-5.84-1.555 0-2.836 0.691-3.908 1.704-1.091 1.031-1.86 2.304-2.304 3.191l-1.788 3.577zM16.784 29.723c-0.19 0.223-0.47 0.364-0.784 0.364s-0.594-0.141-0.783-0.362l-0.001-0.001c-3.203-3.804-6.1-6.524-8.487-8.763-4.129-3.876-6.729-6.316-6.729-10.453 0-4.329 3.58-7.84 8-7.84 3.2 0 5.439 2.1 6.808 4.016 0.52 0.731 0.916 1.432 1.192 1.984 0.347-0.691 0.745-1.353 1.192-1.984 1.369-1.917 3.608-4.016 6.808-4.016 4.42 0 8 3.511 8 7.84 0 4.137-2.6 6.576-6.729 10.453-2.387 2.24-5.284 4.963-8.487 8.763z"></path>
</symbol>
<symbol id="icon-kitchen" viewBox="0 0 32 32">
<path d="M1 12c-0.552 0-1 0.448-1 1 0 0.077 0.009 0.151 0.025 0.223l-0.001-0.007 3.304 14.867c0.514 2.257 2.503 3.916 4.88 3.917h11.584c2.377-0.001 4.366-1.66 4.874-3.883l0.006-0.034 0.262-1.179c0.335 0.066 0.721 0.104 1.115 0.104 3.314 0 6-2.686 6-6 0-2.786-1.899-5.129-4.473-5.804l-0.042-0.009 0.442-1.979c0.015-0.065 0.024-0.14 0.024-0.218 0-0.551-0.447-0.998-0.998-0.998-0.001 0-0.001 0-0.002 0h-26zM26 25c-0.001 0-0.003 0-0.004 0-0.222 0-0.439-0.018-0.651-0.053l0.023 0.003 1.734-7.797c1.679 0.501 2.883 2.032 2.883 3.843 0 2.205-1.782 3.993-3.984 4.003h-0.001zM5.28 27.65l-3.034-13.65h23.507l-3.034 13.65c-0.308 1.354-1.502 2.35-2.928 2.35h-11.584c-1.426-0-2.62-0.996-2.924-2.33l-0.004-0.020z"></path>
<path d="M8.8 1.6l-0.006 0.008-0.027 0.038c-0.128 0.173-0.262 0.375-0.388 0.583l-0.020 0.036c-0.097 0.151-0.191 0.326-0.271 0.509l-0.010 0.026c-0.053 0.12-0.069 0.184-0.075 0.206v0.008c0.025 0.187 0.090 0.355 0.185 0.501l-0.003-0.005c0.15 0.266 0.357 0.544 0.616 0.89l0.021 0.024c0.235 0.317 0.52 0.694 0.739 1.086 0.224 0.4 0.44 0.91 0.44 1.49 0 0.376-0.13 0.736-0.238 0.989-0.115 0.267-0.25 0.528-0.403 0.776-0.181 0.301-0.348 0.55-0.526 0.79l0.019-0.027-0.035 0.050-0.010 0.016-0.006 0.006c-0.184 0.244-0.474 0.4-0.8 0.4-0.552 0-1-0.448-1-1 0-0.226 0.075-0.435 0.202-0.603l-0.002 0.002 0.006-0.008 0.027-0.038c0.146-0.2 0.282-0.406 0.408-0.619 0.097-0.151 0.191-0.326 0.271-0.509l0.010-0.026c0.053-0.12 0.069-0.184 0.075-0.206-0.023-0.19-0.088-0.36-0.184-0.509l0.003 0.005c-0.204-0.339-0.408-0.63-0.63-0.905l0.012 0.015-0.021-0.024c-0.249-0.316-0.493-0.67-0.714-1.041l-0.025-0.046c-0.261-0.425-0.422-0.936-0.44-1.483l-0-0.005c0-0.378 0.13-0.736 0.238-0.989 0.118-0.277 0.267-0.549 0.403-0.776 0.188-0.307 0.355-0.557 0.531-0.799l-0.024 0.035 0.048-0.070c0.184-0.245 0.475-0.402 0.802-0.402 0.553 0 1.001 0.448 1.001 1.001 0 0.226-0.075 0.434-0.201 0.602l0.002-0.003zM14.8 1.6l-0.006 0.008-0.027 0.038c-0.128 0.173-0.262 0.375-0.388 0.583l-0.020 0.036c-0.097 0.151-0.192 0.326-0.273 0.509l-0.010 0.025c-0.051 0.12-0.067 0.184-0.074 0.206v0.008c0.025 0.187 0.090 0.355 0.185 0.501l-0.003-0.005c0.15 0.266 0.357 0.544 0.616 0.89l0.019 0.024c0.237 0.317 0.52 0.694 0.741 1.086 0.224 0.4 0.44 0.91 0.44 1.49 0 0.376-0.13 0.736-0.238 0.989-0.115 0.267-0.25 0.528-0.403 0.776-0.181 0.301-0.348 0.55-0.525 0.791l0.019-0.028-0.037 0.050-0.010 0.016-0.006 0.006c-0.184 0.244-0.474 0.4-0.8 0.4-0.552 0-1-0.448-1-1 0-0.226 0.075-0.435 0.202-0.603l-0.002 0.002 0.006-0.008 0.027-0.038c0.146-0.2 0.282-0.406 0.408-0.619 0.097-0.151 0.192-0.326 0.273-0.509l0.010-0.025c0.051-0.12 0.067-0.184 0.074-0.206-0.023-0.19-0.088-0.36-0.184-0.509l0.003 0.005c-0.204-0.339-0.408-0.63-0.63-0.905l0.012 0.015-0.019-0.024c-0.25-0.316-0.494-0.671-0.716-1.041l-0.025-0.046c-0.261-0.425-0.422-0.936-0.44-1.483l-0-0.005c0-0.378 0.13-0.736 0.238-0.989 0.118-0.277 0.267-0.549 0.403-0.776 0.187-0.308 0.354-0.557 0.53-0.8l-0.024 0.035 0.053-0.070c0.185-0.23 0.466-0.376 0.781-0.376 0.552 0 1 0.448 1 1 0 0.215-0.068 0.414-0.184 0.578l0.002-0.003zM20.8 1.6l-0.006 0.008-0.027 0.038c-0.128 0.173-0.263 0.375-0.388 0.583l-0.020 0.036c-0.097 0.151-0.192 0.326-0.273 0.509l-0.010 0.025c-0.051 0.12-0.067 0.184-0.074 0.206v0.008c0.025 0.187 0.090 0.355 0.185 0.501l-0.003-0.005c0.15 0.266 0.357 0.544 0.616 0.89l0.019 0.024c0.237 0.317 0.52 0.694 0.741 1.086 0.224 0.4 0.44 0.91 0.44 1.49 0 0.376-0.13 0.736-0.238 0.989-0.131 0.303-0.266 0.558-0.418 0.801l0.015-0.025c-0.18 0.301-0.347 0.55-0.524 0.791l0.020-0.028-0.038 0.050-0.010 0.016-0.006 0.006c-0.184 0.244-0.474 0.4-0.8 0.4-0.552 0-1-0.448-1-1 0-0.226 0.075-0.435 0.202-0.602l-0.002 0.002 0.006-0.008 0.027-0.038c0.146-0.2 0.282-0.406 0.408-0.619 0.107-0.171 0.202-0.349 0.283-0.534 0.051-0.12 0.067-0.184 0.074-0.206-0.023-0.19-0.088-0.36-0.184-0.509l0.003 0.005c-0.204-0.339-0.408-0.63-0.63-0.905l0.012 0.016-0.019-0.024c-0.25-0.316-0.494-0.671-0.716-1.041l-0.025-0.046c-0.261-0.425-0.422-0.936-0.44-1.483l-0-0.005c0-0.378 0.13-0.736 0.238-0.989 0.135-0.306 0.27-0.561 0.42-0.805l-0.017 0.029c0.16-0.262 0.328-0.517 0.506-0.765l0.053-0.070c0.185-0.23 0.466-0.376 0.781-0.376 0.552 0 1 0.448 1 1 0 0.215-0.068 0.414-0.184 0.578l0.002-0.003z"></path>
</symbol>
<symbol id="icon-logo" viewBox="0 0 290 32">
<path fill="#475467" style="fill: var(--color1, #475467)" d="M288.838 15.332h-7.697c-0.034-0.472-0.217-0.896-0.504-1.229l0.002 0.003c-0.302-0.347-0.683-0.617-1.116-0.783l-0.019-0.006c-0.432-0.181-0.934-0.286-1.461-0.286-0.020 0-0.039 0-0.059 0l0.003-0c-0.717 0-1.333 0.13-1.847 0.395-0.516 0.262-0.768 0.636-0.757 1.12-0.011 0.343 0.137 0.661 0.439 0.956 0.311 0.292 0.913 0.518 1.803 0.683l4.727 0.847c2.383 0.435 4.156 1.167 5.318 2.197 1.171 1.020 1.762 2.389 1.773 4.105-0.011 1.658-0.506 3.098-1.485 4.32-0.971 1.212-2.3 2.15-3.985 2.816-1.677 0.657-3.593 0.986-5.743 0.986-3.556 0-6.338-0.725-8.348-2.18-2.001-1.455-3.117-3.375-3.349-5.76h8.303c0.111 0.738 0.476 1.31 1.090 1.713 0.627 0.395 1.414 0.591 2.364 0.591 0.768 0 1.399-0.13 1.894-0.393 0.506-0.262 0.764-0.638 0.772-1.122-0.009-0.444-0.233-0.798-0.666-1.060-0.425-0.262-1.092-0.476-2.001-0.636l-4.119-0.727c-2.374-0.414-4.151-1.203-5.333-2.364-1.182-1.163-1.769-2.658-1.758-4.486-0.011-1.615 0.414-2.985 1.271-4.105 0.868-1.131 2.106-1.99 3.712-2.577 1.617-0.597 3.531-0.894 5.743-0.894 3.364 0 6.016 0.698 7.955 2.091 1.95 1.395 2.974 3.324 3.076 5.788zM248.352 25.515l0.060-9.939h1.092l5.636-7.819h9.393l-9.455 12.181h-2.364l-4.363 5.577zM240.836 31.029v-31.029h8.365v31.031h-8.365zM255.2 31.029l-5.333-9.212 5.455-5.939 9.455 15.153h-9.577zM225.321 31.454c-2.526 0-4.687-0.499-6.485-1.5-1.766-0.987-3.178-2.423-4.109-4.156l-0.027-0.055c-0.96-1.809-1.44-3.904-1.44-6.289 0-2.383 0.48-4.474 1.44-6.272 0.952-1.793 2.366-3.231 4.085-4.187l0.052-0.027c1.798-1.009 3.959-1.515 6.485-1.515 2.283 0 4.258 0.414 5.924 1.244 1.677 0.817 2.974 1.98 3.893 3.484 0.919 1.493 1.385 3.253 1.395 5.274h-7.759c-0.111-1.222-0.465-2.153-1.060-2.788-0.587-0.646-1.344-0.971-2.272-0.971-0.727 0-1.365 0.213-1.909 0.638-0.546 0.414-0.971 1.045-1.274 1.892-0.303 0.838-0.454 1.894-0.454 3.168 0 1.271 0.151 2.334 0.454 3.181 0.303 0.838 0.727 1.472 1.274 1.894 0.544 0.414 1.182 0.621 1.909 0.621 0.614 0 1.161-0.141 1.636-0.425 0.474-0.292 0.858-0.717 1.15-1.271 0.305-0.565 0.486-1.252 0.546-2.061h7.759c-0.032 2.050-0.501 3.84-1.41 5.363-0.909 1.515-2.197 2.688-3.863 3.516-1.658 0.828-3.637 1.242-5.939 1.242zM200.638 20.849v-13.092h8.363v23.275h-7.938v-4.425h-0.243c-0.482 1.458-1.413 2.659-2.628 3.469l-0.024 0.015c-1.263 0.828-2.763 1.242-4.501 1.242-1.626 0-3.051-0.373-4.271-1.12-1.212-0.756-2.177-1.804-2.813-3.048l-0.020-0.043c-0.668-1.312-1.005-2.818-1.015-4.514v-14.848h8.363v13.090c0.011 1.152 0.303 2.054 0.879 2.711 0.587 0.657 1.404 0.986 2.453 0.986 0.7 0 1.301-0.147 1.805-0.439 0.516-0.303 0.909-0.727 1.182-1.274 0.284-0.555 0.42-1.216 0.41-1.984zM166.193 31.029v-23.273h8.122v4.425h0.241c0.427-1.636 1.097-2.833 2.016-3.59 0.856-0.708 1.966-1.138 3.176-1.138 0.029 0 0.058 0 0.086 0.001l-0.004-0c0.363 0 0.723 0.030 1.075 0.092 0.363 0.051 0.713 0.128 1.045 0.226v7.14c-0.443-0.148-0.962-0.261-1.497-0.317l-0.033-0.003c-0.462-0.062-1.003-0.1-1.551-0.107l-0.008-0c-0.819 0-1.557 0.188-2.212 0.563-0.646 0.363-1.158 0.877-1.532 1.545-0.373 0.657-0.561 1.429-0.561 2.319v12.119h-8.363zM137.493 6.788v-6.788h26.972v6.788h-9.333v24.243h-8.303v-24.245h-9.335z"></path>
<path fill="#101828" style="fill: var(--color2, #101828)" d="M133.35 0v31.031h-8.363v-31.031h8.363zM109.327 31.454c-2.485 0-4.627-0.474-6.426-1.423-1.768-0.948-3.182-2.358-4.11-4.069l-0.026-0.053c-0.96-1.798-1.438-3.949-1.438-6.455 0-2.404 0.484-4.503 1.453-6.302 0.956-1.777 2.356-3.207 4.055-4.171l0.051-0.027c1.769-0.998 3.855-1.5 6.257-1.5 1.758 0 3.349 0.273 4.774 0.819 1.43 0.544 2.648 1.353 3.648 2.377l0.002 0.002c1.007 1.041 1.802 2.293 2.311 3.684l0.023 0.073c0.546 1.474 0.819 3.136 0.819 4.986v1.939h-20.789v-4.608h13.092c0-0.003 0-0.007 0-0.010 0-0.649-0.193-1.253-0.524-1.758l0.007 0.012c-0.324-0.512-0.771-0.92-1.3-1.188l-0.019-0.009c-0.52-0.277-1.138-0.44-1.794-0.44-0.024 0-0.048 0-0.072 0.001l0.004-0c-0.013-0-0.028-0-0.044-0-0.665 0-1.292 0.163-1.843 0.45l0.022-0.010c-0.559 0.277-1.019 0.678-1.358 1.17l-0.008 0.012c-0.325 0.501-0.521 1.112-0.529 1.768l-0 0.002v4.971c0 0.747 0.158 1.414 0.469 2.001 0.314 0.583 0.775 1.053 1.333 1.369l0.017 0.009c0.585 0.335 1.293 0.501 2.121 0.501 0.576 0 1.101-0.081 1.577-0.243 0.479-0.156 0.893-0.394 1.246-0.701l-0.004 0.004c0.341-0.311 0.597-0.687 0.757-1.12h7.637c-0.249 1.619-0.912 3.052-1.877 4.226l0.012-0.015c-0.981 1.182-2.278 2.101-3.893 2.758-1.606 0.646-3.486 0.969-5.636 0.969zM95.65 7.757l-7.817 23.275h-9.698l-7.819-23.275h8.789l3.757 15.394h0.243l3.757-15.394h8.789zM53.453 31.394c-1.485 0-2.799-0.243-3.94-0.727-1.111-0.479-2.020-1.251-2.653-2.219l-0.014-0.023c-0.646-1.001-0.969-2.274-0.969-3.819 0-1.274 0.218-2.359 0.651-3.258 0.427-0.9 1.045-1.648 1.804-2.216l0.015-0.011c0.777-0.576 1.681-1.015 2.709-1.318 0.984-0.293 2.131-0.503 3.313-0.588l0.053-0.003c1.195-0.082 2.271-0.211 3.331-0.39l-0.195 0.027c0.798-0.151 1.374-0.358 1.728-0.623 0.323-0.238 0.529-0.617 0.529-1.043 0-0.011-0-0.022-0-0.033l0 0.002v-0.060c0-0.606-0.233-1.071-0.698-1.395-0.465-0.322-1.060-0.484-1.788-0.484-0.798 0-1.451 0.177-1.954 0.531-0.495 0.341-0.794 0.875-0.894 1.589h-7.697c0.104-1.47 0.593-2.807 1.366-3.935l-0.018 0.027c0.809-1.201 1.984-2.161 3.531-2.88 1.545-0.725 3.475-1.088 5.788-1.088 1.666 0 3.162 0.196 4.484 0.589 1.323 0.384 2.449 0.924 3.379 1.621 0.93 0.687 1.636 1.495 2.121 2.426 0.495 0.917 0.742 1.92 0.742 2.999v15.938h-7.817v-3.273h-0.183c-0.432 0.831-1.002 1.531-1.685 2.099l-0.011 0.009c-0.657 0.533-1.408 0.924-2.257 1.165-0.799 0.231-1.717 0.363-2.666 0.363-0.038 0-0.076-0-0.113-0.001l0.006 0zM56.179 26.121c0.638 0 1.233-0.13 1.788-0.393 0.567-0.262 1.026-0.642 1.38-1.137s0.529-1.097 0.529-1.803v-1.941c-0.167 0.073-0.402 0.16-0.642 0.239l-0.069 0.019c-0.443 0.15-1.003 0.296-1.574 0.409l-0.092 0.015c-0.188 0.043-0.513 0.101-0.84 0.152l-0.116 0.015c-0.593 0.079-1.13 0.255-1.617 0.514l0.026-0.012c-0.405 0.222-0.706 0.499-0.909 0.832-0.181 0.304-0.288 0.67-0.288 1.060 0 0.011 0 0.022 0 0.033l-0-0.002c0 0.646 0.228 1.141 0.683 1.485 0.454 0.341 1.035 0.514 1.741 0.514zM28.698 31.029v-23.273h8.122v4.425h0.243c0.422-1.636 1.094-2.833 2.014-3.59 0.856-0.708 1.966-1.138 3.176-1.138 0.029 0 0.058 0 0.086 0.001l-0.004-0c0.363 0 0.723 0.030 1.077 0.092 0.363 0.051 0.71 0.128 1.045 0.226v7.14c-0.444-0.148-0.963-0.261-1.499-0.317l-0.032-0.003c-0.462-0.062-1.003-0.1-1.551-0.107l-0.008-0c-0.819 0-1.557 0.188-2.212 0.563-0.646 0.363-1.156 0.877-1.532 1.545-0.373 0.657-0.559 1.429-0.559 2.319v12.119h-8.363zM0 6.788v-6.788h26.97v6.788h-9.333v24.243h-8.303v-24.245h-9.333z"></path>
</symbol>
<symbol id="icon-map" viewBox="0 0 32 32">
<path d="M31.634 0.226c0.224 0.185 0.366 0.462 0.366 0.773 0 0.001 0 0.001 0 0.002v-0 28c-0.001 0.483-0.343 0.885-0.798 0.978l-0.006 0.001-10 2c-0.059 0.012-0.127 0.019-0.196 0.019s-0.137-0.007-0.202-0.020l0.006 0.001-9.803-1.96-9.803 1.96c-0.059 0.012-0.127 0.020-0.197 0.020-0.552 0-0.999-0.447-1-0.999v-28c0-0 0-0 0-0 0-0.483 0.342-0.885 0.797-0.979l0.006-0.001 10-2c0.059-0.012 0.127-0.019 0.196-0.019s0.137 0.007 0.202 0.021l-0.006-0.001 9.805 1.96 9.805-1.96c0.059-0.012 0.127-0.019 0.196-0.019 0.241 0 0.462 0.085 0.635 0.227l-0.002-0.001zM20 3.819l-8-1.6v25.96l8 1.6v-25.96zM22 29.779l8-1.6v-25.96l-8 1.6v25.96zM10 28.179v-25.96l-8 1.6v25.96l8-1.6z"></path>
</symbol>
<symbol id="icon-microwave" viewBox="0 0 32 32">
<path d="M5.331 4.331c-2.013 0-3.663 1.656-3.663 3.669v14.669c0 2.013 1.65 3.663 3.663 3.663h21.337c2.013 0 3.663-1.65 3.663-3.663v-14.669c0-2.013-1.649-3.669-3.663-3.669zM5.331 6.331h21.337c0.931 0 1.663 0.737 1.663 1.669v14.669c0 0.931-0.731 1.663-1.663 1.663h-21.337c-0.931 0-1.663-0.731-1.663-1.663v-14.669c0-0.931 0.732-1.669 1.663-1.669z"></path>
<path d="M9.331 9.669c-1.277 0-2.331 1.055-2.331 2.331v6.669c0 1.277 1.055 2.331 2.331 2.331h8c1.277 0 2.337-1.053 2.337-2.331v-6.669c0-1.278-1.060-2.333-2.337-2.331zM24 9.669c-0.552 0-1 0.448-1 1v0 9.331c0 0.552 0.448 1 1 1v0c0.552 0 1-0.448 1-1v0-9.331c0-0.552-0.448-1-1-1v0zM9.331 11.669h8c0 0 0.001 0 0.002 0s0.001 0 0.002 0h-0c0.196-0 0.334 0.135 0.334 0.331v6.669c0 0.194-0.142 0.331-0.337 0.331h-8c-0.195 0-0.331-0.136-0.331-0.331v-6.669c0-0.196 0.136-0.331 0.331-0.331zM8 24.331c-0.552 0-1 0.448-1 1v0 2.669c0 0.552 0.448 1 1 1v0c0.552 0 1-0.448 1-1v0-2.669c0-0.552-0.448-1-1-1v0zM24 24.331c-0.552 0-1 0.448-1 1v0 2.669c0 0.552 0.448 1 1 1v0c0.552 0 1-0.448 1-1v0-2.669c0-0.552-0.448-1-1-1v0z"></path>
</symbol>
<symbol id="icon-engine" viewBox="0 0 32 32">
<path d="M6 5c0-0.552 0.448-1 1-1v0h10c0.552 0 1 0.448 1 1v0 10c0 0.552-0.448 1-1 1v0h-10c-0.552 0-1-0.448-1-1v0-10z"></path>
<path d="M2 4c0-2.209 1.791-4 4-4v0h12c2.209 0 4 1.791 4 4v0 16c2.209 0 4 1.791 4 4v0 1c0 0.552 0.448 1 1 1s1-0.448 1-1v0-9h-1c-0.552 0-1-0.448-1-1v0-6.25c0-0.552 0.448-1 1-1v0h2.99c-0.022-0.952-0.107-1.789-0.403-2.445-0.163-0.386-0.436-0.7-0.779-0.91l-0.008-0.005c-0.368-0.221-0.928-0.39-1.8-0.39-0.552 0-1-0.448-1-1s0.448-1 1-1v0c1.128-0.003 2.069 0.221 2.824 0.672 0.766 0.456 1.269 1.102 1.587 1.814 0.592 1.31 0.589 2.93 0.589 4.162v6.35c0 0 0 0.001 0 0.002 0 0.552-0.448 1-1 1h-1v9c0 1.657-1.343 3-3 3s-3-1.343-3-3v0-1c0-1.105-0.895-2-2-2v0 8h1c0.552 0 1 0.448 1 1s-0.448 1-1 1v0h-22c-0.552 0-1-0.448-1-1s0.448-1 1-1v0h1v-26zM20 4c0-1.105-0.895-2-2-2v0h-12c-1.105 0-2 0.895-2 2v0 26h16v-26z"></path>
</symbol>
<symbol id="icon-radio" viewBox="0 0 32 32">
<path d="M14 5c0-0.552 0.448-1 1-1v0h14c0.552 0 1 0.448 1 1v0 2c0 0.552-0.448 1-1 1v0h-14c-0.552 0-1-0.448-1-1v0-2zM0 24c0-3.314 2.686-6 6-6s6 2.686 6 6v0c0 3.314-2.686 6-6 6s-6-2.686-6-6v0zM14 21c0-0.552 0.448-1 1-1v0h14c0 0 0.001 0 0.002 0 0.551 0 0.998 0.447 0.998 0.998 0 0.001 0 0.001 0 0.002v-0 2c0 0 0 0.001 0 0.002 0 0.551-0.447 0.998-0.998 0.998-0.001 0-0.001 0-0.002 0h-14c-0.552 0-1-0.448-1-1v0-2zM14 11c0-0.552 0.448-1 1-1v0h10c0.552 0 1 0.448 1 1s-0.448 1-1 1v0h-10c-0.552 0-1-0.448-1-1v0zM14 27c0-0.552 0.448-1 1-1v0h10c0.552 0 1 0.448 1 1s-0.448 1-1 1v0h-10c-0.552 0-1-0.448-1-1v0zM6 2c-3.314 0-6 2.686-6 6s2.686 6 6 6v0c3.314 0 6-2.686 6-6s-2.686-6-6-6v0zM6 11c-1.657 0-3-1.343-3-3s1.343-3 3-3v0c1.657 0 3 1.343 3 3s-1.343 3-3 3v0z"></path>
</symbol>
<symbol id="icon-refrigerator" viewBox="0 0 32 32">
<path d="M23.667 9.333c0-0.552-0.448-1-1-1s-1 0.448-1 1v0 2.667c0 0.552 0.448 1 1 1s1-0.448 1-1v0-2.667zM23.667 18.667c0-0.552-0.448-1-1-1s-1 0.448-1 1v0 2.666c0 0.552 0.448 1 1 1s1-0.448 1-1v0-2.666z"></path>
<path d="M16.075 1.667h-0.15c-2.45 0-4.392 0-5.91 0.203-1.562 0.211-2.827 0.654-3.826 1.651-0.998 0.998-1.44 2.264-1.651 3.827-0.205 1.52-0.205 3.459-0.205 5.91v4.149c0 2.451 0 4.392 0.205 5.91 0.211 1.563 0.653 2.829 1.651 3.827 0.613 0.611 1.325 1.014 2.144 1.283v0.904c0 0.552 0.448 1 1 1h1.334c0.552 0 1-0.448 1-1v0-0.394c1.21 0.061 2.619 0.061 4.258 0.061h0.15c1.64 0 3.048 0 4.258-0.061v0.394c0 0.552 0.448 1 1 1h1.334c0.552 0 1-0.448 1-1v0-0.904c0.819-0.269 1.533-0.672 2.144-1.283 0.998-0.998 1.44-2.264 1.651-3.827 0.205-1.52 0.205-3.459 0.205-5.91v-4.147c0-2.451 0-4.392-0.205-5.912-0.211-1.562-0.653-2.827-1.651-3.826s-2.264-1.44-3.826-1.651c-1.52-0.203-3.461-0.203-5.91-0.203zM7.603 4.936c0.563-0.563 1.338-0.902 2.678-1.083 1.371-0.184 3.176-0.186 5.718-0.186 2.544 0 4.349 0.002 5.72 0.186 1.341 0.181 2.112 0.52 2.677 1.083 0.565 0.565 0.904 1.338 1.083 2.678 0.184 1.371 0.187 3.176 0.187 5.718v1h-19.334v-1c0-2.542 0.003-4.347 0.187-5.72 0.181-1.339 0.518-2.112 1.083-2.677zM6.333 16.333h19.334v1c0 2.544-0.003 4.35-0.187 5.72-0.181 1.341-0.518 2.114-1.083 2.678-0.563 0.563-1.336 0.902-2.678 1.082-1.371 0.184-3.176 0.187-5.718 0.187-2.544 0-4.347-0.003-5.72-0.187-1.339-0.179-2.112-0.518-2.677-1.082-0.565-0.565-0.902-1.338-1.083-2.68-0.184-1.368-0.187-3.176-0.187-5.718v-1z"></path>
</symbol>
<symbol id="icon-star" viewBox="0 0 32 32">
<path fill="#ffc531" style="fill: var(--color3, #ffc531)" d="M15.116 1.676c0.171-0.319 0.503-0.532 0.884-0.532s0.713 0.213 0.881 0.527l0.003 0.005 3.778 7.158c0.144 0.27 0.401 0.464 0.706 0.519l0.006 0.001 7.976 1.38c0.473 0.085 0.827 0.494 0.827 0.985 0 0.27-0.107 0.515-0.281 0.695l0-0-5.64 5.804c-0.176 0.18-0.284 0.426-0.284 0.698 0 0.050 0.004 0.099 0.011 0.147l-0.001-0.005 1.152 8.010c0.006 0.043 0.010 0.092 0.010 0.142 0 0.552-0.448 1-1 1-0.16 0-0.312-0.038-0.446-0.105l0.006 0.003-7.264-3.572c-0.129-0.065-0.281-0.103-0.442-0.103s-0.313 0.038-0.448 0.106l0.006-0.003-7.26 3.572c-0.129 0.065-0.281 0.103-0.442 0.103-0.552 0-1-0.448-1-1 0-0.050 0.004-0.1 0.011-0.149l-0.001 0.005 1.152-8.010c0.006-0.043 0.010-0.092 0.010-0.142 0-0.272-0.108-0.518-0.284-0.698l-5.64-5.804c-0.174-0.18-0.281-0.425-0.281-0.695 0-0.491 0.354-0.9 0.821-0.984l0.006-0.001 7.976-1.38c0.312-0.056 0.57-0.249 0.711-0.515l0.003-0.005 3.778-7.158z"></path>
</symbol>
<symbol id="icon-water" viewBox="0 0 32 32">
<path d="M16 2.506c-0.492 0-0.982 0.198-1.325 0.597l-0.003 0.003c-1.012 1.183-3.146 3.792-5.050 6.894s-3.622 6.674-3.622 10c0 2.971 0.954 5.51 2.722 7.278s4.307 2.722 7.278 2.722c2.971 0 5.51-0.954 7.278-2.722s2.722-4.307 2.722-7.278c0-3.326-1.718-6.898-3.622-10s-4.036-5.712-5.047-6.894h-0.003v-0.003c-0.343-0.399-0.836-0.597-1.328-0.597zM16 4.666c1.012 1.194 2.93 3.538 4.675 6.381 1.816 2.959 3.325 6.353 3.325 8.953 0 2.552-0.783 4.515-2.134 5.866s-3.314 2.134-5.866 2.134c-2.552 0-4.515-0.783-5.866-2.134s-2.134-3.314-2.134-5.866c0-2.6 1.508-5.994 3.325-8.953 1.745-2.843 3.662-5.188 4.675-6.381z"></path>
<path d="M21.5 19.5c-0.552 0-1 0.448-1 1v0c0 1.945-1.555 3.501-3.5 3.5-0.552 0-1 0.448-1 1v0c0 0.552 0.448 1 1 1v0c3.026 0.001 5.5-2.474 5.5-5.5 0-0.552-0.448-1-1-1v0z"></path>
</symbol>
<symbol id="icon-tV" viewBox="0 0 32 32">
<path d="M0 8s0-4 4-4h24s4 0 4 4v12s0 4-4 4h-8c0 1.333 0.167 2.333 0.5 3h1.5c0.552 0 1 0.448 1 1s-0.448 1-1 1v0h-12c-0.552 0-1-0.448-1-1s0.448-1 1-1v0h1.5c0.333-0.667 0.5-1.667 0.5-3h-8s-4 0-4-4v-12zM2.796 6.29c-0.218 0.153-0.391 0.357-0.504 0.595l-0.004 0.009c-0.161 0.329-0.264 0.713-0.288 1.118l-0 0.008v11.98c0 0.65 0.156 1.004 0.29 1.204 0.14 0.208 0.341 0.377 0.604 0.508 0.338 0.162 0.703 0.259 1.076 0.286l0.050 0.002h23.98c0.65 0 1.004-0.156 1.204-0.29 0.218-0.153 0.391-0.357 0.504-0.595l0.004-0.009c0.162-0.338 0.259-0.703 0.286-1.076l0.002-0.050v-11.98c0-0.65-0.156-1.004-0.29-1.204-0.153-0.218-0.357-0.391-0.595-0.504l-0.009-0.004c-0.329-0.161-0.713-0.264-1.118-0.288l-0.008-0h-23.98c-0.65 0-1.004 0.156-1.204 0.29z"></path>
</symbol>
</defs>
</svg>
